# xmcd
#
# Track frame offsets: 
#        150
#        25890
#        48127
#        67797
#        89852
#        111837
#        152035
#        171265
#        188302
#        202460
#        216975
#        233825
#
# Disc length: 3351 seconds
#
# Revision: 1
# Processed by: cddbd v1.5.2PL0 Copyright (c) Steve Scherf et al.
# Submitted via: ExactAudioCopyFreeDBPlugin 1.0
#
DISCID=a50d150c
DTITLE=Acoustic Club - AQUASCAPE
DYEAR=1988
DGENRE=New Age
TTITLE0=The Reminiscence of Easturf
TTITLE1=Poinciana
TTITLE2=L'Agrimas de la Araucana
TTITLE3=Maliendo Cafe
TTITLE4=Bali Hai
TTITLE5=Infinite Ripple
TTITLE6=Aquarium
TTITLE7=Aquarela do Brasil
TTITLE8=A Lady for Passion
TTITLE9=Senrei
TTITLE10=Go Away from Summer
TTITLE11=Porto
EXTD=YEAR: 1988
EXTT0=
EXTT1=
EXTT2=
EXTT3=
EXTT4=
EXTT5=
EXTT6=
EXTT7=
EXTT8=
EXTT9=
EXTT10=
EXTT11=
PLAYORDER=
